<?xml version="1.0" encoding="utf-8"?>
<!-- Generator: Moho 12.5 build 22438 -->
<!DOCTYPE svg PUBLIC "-//W3C//DTD SVG 1.1//EN" "http://www.w3.org/Graphics/SVG/1.1/DTD/svg11.dtd">
<svg version="1.1" id="Frame_0" xmlns="http://www.w3.org/2000/svg" xmlns:xlink="http://www.w3.org/1999/xlink" width="1080px" height="1080px">
<g id="logo_barcelona.png_(Trazada)">
<path fill="#292929" fill-rule="evenodd" stroke="none" d="M 490.817 842.196 C 490.817 839.359 489.754 830.135 493.655 829.782 C 495.784 829.426 505.012 833.683 507.850 834.391 C 518.140 838.295 526.304 840.068 537.658 840.068 C 548.660 840.068 556.821 838.295 567.467 834.391 C 569.952 833.683 579.177 829.426 581.306 829.782 C 585.208 830.135 584.145 839.359 584.500 842.196 C 584.497 854.257 584.496 866.318 584.500 878.376 C 584.145 881.924 584.855 889.018 582.371 891.501 C 579.533 894.339 565.338 893.274 561.079 893.274 C 541.917 893.274 522.399 893.629 503.592 893.274 C 500.398 893.274 494.719 893.631 492.590 891.501 C 490.462 889.373 490.817 883.697 490.817 880.505 C 490.813 867.736 490.813 854.967 490.817 842.196 M 571.370 786.861 C 575.628 782.249 579.179 773.383 584.500 770.899 C 596.918 765.932 614.307 776.924 611.115 791.117 C 606.503 814.180 565.691 833.684 544.046 833.683 C 528.077 834.037 520.626 834.747 505.721 828.717 C 503.592 828.007 494.720 824.462 495.784 821.268 C 496.495 819.139 507.495 818.076 509.979 817.721 C 524.528 815.238 535.173 811.692 548.305 804.242 C 556.112 799.986 565.337 793.602 571.370 786.861 M 524.883 769.835 C 536.592 762.741 539.790 747.487 550.434 745.359 C 572.074 740.395 579.528 768.060 568.532 782.604 C 553.985 801.411 511.751 816.656 488.687 814.528 C 478.399 813.820 471.654 806.017 466.331 797.857 C 464.558 795.018 461.365 790.409 464.202 787.925 C 465.622 786.505 474.848 784.377 478.042 782.960 C 484.429 779.767 491.882 771.254 497.204 770.899 C 508.915 770.544 511.752 777.285 524.883 769.835 M 527.012 725.141 C 525.948 711.660 531.631 700.666 546.175 698.182 C 570.303 693.925 604.018 721.235 616.082 740.039 C 622.115 749.615 623.890 757.065 621.761 767.706 C 621.052 769.835 619.275 777.283 617.147 777.639 C 615.018 778.348 606.501 769.479 603.307 768.062 C 595.146 763.093 584.145 765.223 581.662 763.450 C 577.758 760.613 576.690 747.843 563.209 742.167 C 550.789 736.490 542.273 745.005 535.529 742.167 C 529.853 739.683 527.368 731.171 527.012 725.141 M 463.493 703.858 C 465.267 700.665 475.558 683.994 479.462 685.768 C 481.943 686.477 479.462 693.925 479.462 695.345 C 476.622 706.695 475.557 713.791 475.913 725.141 C 475.913 733.654 476.978 741.103 480.526 748.552 C 482.655 753.164 488.687 761.321 488.332 765.578 C 487.623 775.159 467.750 783.670 459.588 779.767 C 452.494 776.219 452.491 759.902 452.491 752.808 C 452.136 732.589 452.848 722.303 463.493 703.858 M 482.300 725.141 C 481.944 697.825 484.796 665.195 520.270 664.485 C 522.045 664.129 524.883 664.484 525.239 666.613 C 525.948 671.225 523.110 675.482 523.463 680.447 C 524.174 686.832 528.433 691.088 529.142 695.345 C 530.206 701.375 520.981 710.242 520.625 720.884 C 519.560 741.811 545.457 752.100 522.399 765.578 C 520.270 766.998 516.722 767.706 514.238 767.706 C 490.114 769.480 482.300 744.654 482.300 725.141 M 535.529 691.444 C 525.244 685.412 528.082 665.905 539.788 662.712 C 544.755 661.292 553.627 663.776 558.950 664.840 C 582.012 670.160 601.177 685.409 612.889 705.986 C 615.018 710.598 623.889 730.106 621.761 734.363 C 620.697 736.492 618.211 734.010 617.502 733.298 C 613.600 729.397 610.050 725.141 606.501 721.240 C 595.145 709.533 577.047 698.181 561.079 694.281 C 553.271 692.508 542.626 695.702 535.529 691.444 M 682.442 621.211 C 682.443 617.663 682.088 613.406 685.281 610.569 C 688.121 609.858 703.734 610.214 707.992 610.569 C 725.729 610.573 743.472 610.574 761.222 610.569 C 764.415 610.569 771.512 609.858 773.997 612.342 C 776.481 614.471 775.770 620.147 776.126 622.984 C 776.120 635.047 776.119 647.108 776.126 659.164 C 776.119 712.374 776.121 765.580 776.126 818.785 C 775.770 823.750 776.481 829.426 773.997 833.683 C 770.803 840.069 762.641 843.969 756.963 847.516 C 743.123 855.674 728.928 862.059 714.380 867.735 C 709.412 869.863 688.121 878.733 684.216 876.248 C 681.734 874.475 682.442 866.315 682.442 863.478 C 682.434 799.632 682.437 735.785 682.442 671.934 C 682.442 655.263 681.733 637.882 682.442 621.211 M 490.817 625.112 C 490.817 621.211 489.754 613.762 493.655 610.569 C 496.495 609.858 512.108 610.214 516.367 610.569 C 535.174 610.214 554.692 609.859 573.499 610.569 C 576.339 610.569 580.597 610.213 582.371 612.342 C 584.855 614.470 584.145 620.147 584.500 622.984 C 584.497 633.629 584.496 644.270 584.500 654.908 C 584.145 657.391 584.855 665.904 582.371 667.322 C 580.951 668.033 562.144 660.584 558.950 659.520 C 546.531 656.327 530.916 655.971 518.496 659.520 C 514.238 660.228 495.784 666.614 493.655 666.258 C 489.754 665.193 490.817 656.327 490.817 652.779 C 490.813 643.560 490.813 634.338 490.817 625.112 M 299.191 625.112 C 299.191 621.211 298.128 613.762 302.029 610.569 C 304.870 609.858 320.483 610.214 324.741 610.569 C 342.482 610.573 360.225 610.574 377.970 610.569 C 381.164 610.569 388.261 609.504 390.745 612.342 C 393.229 614.826 392.519 621.919 392.875 625.112 C 392.872 640.013 392.872 654.911 392.875 669.806 C 392.872 734.366 392.874 798.923 392.875 863.478 C 392.519 866.315 393.229 874.475 390.745 876.248 C 386.843 878.733 365.551 869.864 360.937 867.735 C 346.033 862.059 331.838 855.674 318.354 847.516 C 312.322 843.969 304.159 839.713 300.965 833.683 C 298.483 829.426 299.191 823.750 299.191 818.785 C 299.188 766.290 299.189 713.793 299.191 661.293 C 299.189 649.236 299.189 637.176 299.191 625.112 M 220.412 605.957 C 216.862 606.313 211.186 605.957 208.346 608.086 C 204.444 611.278 205.508 618.727 205.152 622.984 C 204.798 630.077 203.023 635.045 203.378 642.138 C 204.087 648.523 205.151 652.779 205.152 659.164 C 206.579 736.145 240.655 803.891 305.578 846.452 C 374.425 892.576 457.107 899.661 537.658 899.659 C 585.565 899.658 626.727 898.595 673.926 886.889 C 715.798 876.249 757.671 859.582 791.030 831.199 C 837.153 791.477 868.384 729.402 869.454 667.677 C 869.810 659.164 870.875 651.007 871.583 642.138 C 871.939 637.173 869.808 610.569 866.616 608.086 C 863.778 605.957 858.099 606.313 854.905 605.957 C 824.388 605.959 793.515 605.957 763.351 605.957 C 644.822 605.961 526.299 605.961 407.779 605.957 C 358.805 605.961 309.835 605.961 260.866 605.957 C 247.380 605.961 233.895 605.962 220.412 605.957 M 628.858 570.132 C 625.665 567.293 626.021 556.299 629.922 553.815 C 634.536 551.330 649.796 553.105 653.698 556.652 C 657.246 559.844 657.599 566.940 653.698 570.132 C 650.149 572.615 631.698 573.326 628.858 570.132 M 629.922 537.144 C 626.021 534.660 626.021 526.503 629.922 524.019 C 637.728 520.116 665.051 525.787 649.796 535.724 C 646.247 538.210 633.827 538.918 629.922 537.144 M 646.246 505.929 C 640.214 505.929 612.889 504.863 609.695 508.057 C 606.503 511.249 607.921 536.433 607.921 542.109 C 607.921 554.879 607.565 568.004 607.921 580.418 C 607.922 592.483 612.181 591.060 622.826 591.060 C 637.374 591.414 659.730 593.901 670.732 582.191 C 676.408 575.806 678.892 565.165 676.410 557.007 C 673.927 549.913 669.669 548.495 671.088 539.981 C 675.341 517.275 672.498 506.282 646.246 505.929 M 412.037 506.284 C 408.488 506.284 401.391 505.219 398.907 508.057 C 396.070 510.894 397.133 523.310 397.133 527.211 C 397.130 544.242 397.129 561.268 397.133 578.290 C 397.133 581.482 396.425 587.158 398.907 589.287 C 401.747 592.480 412.746 592.125 415.231 588.223 C 418.423 582.191 413.459 564.100 418.069 558.071 C 423.748 550.620 440.072 560.913 441.490 548.494 C 443.974 529.334 420.909 544.597 417.360 533.241 C 414.522 525.080 426.233 525.438 431.200 525.083 C 436.165 525.088 441.133 525.088 446.104 525.083 C 449.298 525.083 456.395 525.793 458.879 523.310 C 459.943 522.246 467.035 506.636 450.007 506.284 C 437.587 505.929 424.457 505.929 412.037 506.284 M 554.336 511.605 C 546.175 505.218 534.820 502.734 524.883 504.865 C 472.032 515.513 489.770 610.205 544.046 589.995 C 553.624 586.449 571.362 571.200 552.563 565.876 C 542.982 563.034 539.432 575.099 529.142 572.614 C 509.633 567.647 508.567 530.760 527.012 525.083 C 539.078 520.469 547.951 539.280 559.659 525.083 C 564.271 520.470 558.240 514.441 554.336 511.605 M 441.846 442.080 C 441.846 436.051 439.719 409.801 444.684 406.255 C 447.524 405.544 463.137 405.900 467.396 406.255 C 486.203 405.900 505.721 405.545 524.528 406.255 C 528.077 406.255 532.336 405.899 535.174 409.092 C 535.885 411.929 535.529 423.635 535.174 427.183 C 535.170 441.377 535.170 455.565 535.174 469.748 C 535.174 473.296 535.884 480.389 533.400 482.873 C 530.562 485.711 516.367 484.646 512.109 484.646 C 492.946 484.646 473.428 485.001 454.621 484.646 C 451.427 484.646 445.749 485.002 443.619 482.873 C 441.491 481.098 441.846 476.842 441.846 474.005 C 441.490 463.719 441.846 452.722 441.846 442.080 M 251.284 439.952 C 253.058 433.923 256.965 409.448 261.575 406.255 C 264.769 405.544 280.028 405.900 284.287 406.255 C 300.965 405.900 318.354 405.545 335.032 406.255 C 338.581 406.255 342.839 405.899 345.677 409.092 C 346.388 411.929 346.033 423.635 345.677 427.183 C 345.675 441.377 345.676 455.565 345.677 469.748 C 345.676 482.875 346.738 484.647 333.258 484.646 C 306.288 484.999 278.964 485.001 252.349 484.646 C 249.155 484.646 241.348 485.356 239.930 482.873 C 237.091 480.389 239.219 474.713 239.930 471.876 C 244.187 461.590 248.090 450.949 251.284 439.952 M 556.821 244.507 C 558.950 244.151 565.693 243.442 567.467 244.507 C 569.951 246.635 569.241 254.084 569.596 256.921 C 569.592 271.117 569.592 285.305 569.596 299.486 C 569.592 356.247 569.598 413.000 569.596 469.748 C 569.240 480.391 570.657 484.647 558.595 484.646 C 555.048 485.001 544.046 485.711 541.561 482.873 C 539.433 480.745 539.788 475.069 539.788 471.876 C 539.783 458.403 539.783 444.924 539.788 431.439 C 539.783 373.982 539.776 316.519 539.788 259.049 C 539.790 242.374 541.211 244.859 556.821 244.507 M 827.226 238.830 C 829.711 238.831 844.260 236.346 845.680 238.830 C 847.452 240.250 841.421 250.536 840.357 252.664 C 833.970 265.789 828.290 279.623 824.741 293.101 C 809.839 341.342 809.839 396.324 824.741 444.209 C 827.935 453.786 831.485 462.654 835.034 471.876 C 835.743 474.713 837.871 480.389 835.034 482.873 C 833.969 485.002 829.355 484.646 826.871 484.646 C 822.724 484.651 818.584 484.651 814.451 484.646 C 810.902 484.646 803.805 485.356 801.320 482.873 C 799.192 480.745 799.547 475.069 799.547 471.876 C 799.539 458.403 799.540 444.924 799.547 431.439 C 799.540 372.563 799.534 313.681 799.547 254.792 C 799.549 232.794 809.839 241.667 827.226 238.830 M 733.543 244.507 C 733.543 241.314 732.835 236.347 736.381 235.638 C 738.866 234.573 743.833 235.638 746.318 235.638 C 750.931 235.993 760.157 235.281 763.351 239.539 C 765.479 242.023 765.125 247.343 765.480 250.536 C 765.474 261.894 765.474 273.245 765.480 284.588 C 765.474 346.315 765.481 408.034 765.480 469.748 C 765.124 480.746 766.897 484.647 754.479 484.646 C 751.752 484.651 749.032 484.651 746.318 484.646 C 743.124 484.646 737.445 485.356 735.316 482.873 C 732.834 480.745 733.543 475.069 733.543 471.876 C 733.536 461.240 733.536 450.599 733.543 439.952 C 733.536 392.427 733.536 344.896 733.543 297.358 C 733.543 279.976 732.833 261.886 733.543 244.507 M 309.837 237.766 C 319.063 236.702 330.064 234.574 339.290 234.574 C 346.386 234.573 345.677 238.830 345.677 244.507 C 346.390 261.886 346.033 279.976 345.677 297.358 C 345.677 300.906 346.387 307.999 343.904 310.483 C 341.065 313.321 328.644 312.256 324.741 312.256 C 306.996 312.262 289.253 312.262 271.512 312.256 C 267.253 312.256 260.510 312.965 257.316 310.483 C 253.770 307.999 252.349 299.842 251.284 295.230 C 247.735 282.815 242.768 271.110 237.445 259.049 C 236.381 256.212 227.509 240.250 229.284 238.122 C 230.349 237.057 237.801 237.766 239.574 238.122 C 249.156 238.831 256.963 240.250 267.253 239.895 C 275.770 239.895 283.931 238.122 292.804 237.766 C 298.127 237.766 304.159 238.122 309.837 237.766 M 620.696 229.962 C 622.826 229.253 629.213 226.416 631.342 227.834 C 633.826 229.253 633.116 235.638 633.471 237.766 C 633.467 254.090 633.466 270.407 633.471 286.717 C 633.466 347.734 633.473 408.743 633.471 469.748 C 633.115 480.391 634.532 484.647 622.470 484.646 C 618.567 485.001 605.792 485.711 603.307 482.873 C 600.826 480.389 601.534 473.296 601.534 469.748 C 601.529 455.565 601.529 441.377 601.534 427.183 C 601.534 367.236 599.754 306.580 601.534 246.635 C 601.891 232.798 609.343 233.865 620.696 229.962 M 441.846 237.766 C 441.846 234.929 440.783 227.834 444.684 227.480 C 446.813 227.125 465.622 233.865 469.525 234.929 C 483.365 238.831 497.560 242.023 512.109 243.796 C 516.367 244.507 529.497 243.795 532.336 245.215 C 536.237 247.699 535.174 255.148 535.529 259.049 C 535.526 271.826 535.526 284.595 535.529 297.358 C 535.174 300.906 535.884 307.999 533.400 310.483 C 530.562 313.321 516.367 312.256 512.109 312.256 C 492.946 312.255 473.428 312.611 454.621 312.256 C 451.427 312.256 445.749 312.966 443.619 310.483 C 441.138 308.355 441.846 302.679 441.846 299.486 C 441.842 288.142 441.842 276.792 441.846 265.434 C 441.843 256.219 441.842 246.996 441.846 237.766 M 667.538 218.967 C 667.538 216.128 666.830 210.808 670.376 210.454 C 672.861 210.099 679.958 214.000 682.442 215.064 C 686.345 216.839 694.862 220.384 697.347 223.932 C 700.539 228.544 699.476 260.113 699.476 267.562 C 699.471 334.964 699.478 402.359 699.476 469.748 C 699.119 482.875 700.181 484.647 686.701 484.646 C 682.798 485.001 671.797 485.711 669.312 482.873 C 667.183 480.745 667.538 475.069 667.538 471.876 C 667.532 459.112 667.533 446.343 667.538 433.567 C 667.533 381.076 667.533 328.579 667.538 276.075 C 667.538 257.276 666.828 237.766 667.538 218.967 M 448.233 221.096 C 437.587 216.839 413.810 200.521 403.521 203.358 C 399.972 204.423 394.295 207.970 390.745 209.743 C 381.164 214.000 370.874 218.612 360.937 221.449 C 326.514 231.738 293.868 233.865 258.737 233.510 C 248.447 233.510 238.865 232.090 228.928 231.026 C 226.443 230.317 220.056 228.897 218.638 231.026 C 216.863 234.219 223.250 243.796 224.670 246.279 C 232.477 260.468 238.510 276.075 243.123 290.973 C 259.443 342.406 257.314 397.388 242.059 448.465 C 239.219 458.751 235.671 468.684 231.413 478.261 C 230.349 480.745 227.509 486.774 228.928 489.258 C 230.702 491.741 238.865 491.031 241.703 491.031 C 438.652 491.733 636.309 491.733 833.613 491.031 C 836.098 491.031 844.260 491.741 846.033 489.258 C 847.453 486.774 844.615 480.745 843.550 478.261 C 839.293 468.684 835.743 458.751 832.905 448.465 C 818.003 399.161 814.809 342.759 830.775 293.101 C 835.387 278.558 841.775 262.241 848.873 248.408 C 850.647 245.571 858.098 234.574 856.326 231.381 C 854.550 228.543 842.840 231.026 840.001 231.381 C 822.612 233.866 805.935 233.865 788.901 233.510 C 762.642 233.155 732.479 228.190 707.992 219.321 C 700.185 216.839 672.152 202.650 667.538 203.005 C 659.022 203.005 634.536 218.256 624.955 222.160 C 601.889 231.382 579.177 236.348 554.692 238.122 C 547.240 238.475 540.497 240.603 533.400 239.895 C 503.948 237.057 475.204 232.803 448.233 221.096 M 382.229 182.076 C 387.907 179.239 404.230 169.306 409.908 170.017 C 413.457 170.726 423.039 176.755 426.941 179.239 C 436.167 184.915 446.104 190.235 456.750 194.492 C 487.980 207.263 514.594 210.454 548.305 210.099 C 572.434 210.099 605.082 201.231 627.084 190.589 C 634.180 187.043 662.571 169.662 667.538 170.017 C 671.796 170.017 678.184 174.627 682.442 176.755 C 692.024 181.723 701.961 187.043 712.251 190.944 C 734.252 199.458 756.964 202.651 780.384 204.069 C 786.772 204.422 792.804 205.842 799.547 205.842 C 817.289 206.198 835.034 204.423 852.776 200.877 C 858.808 199.457 870.518 194.845 875.841 196.620 C 883.647 198.749 897.844 217.191 895.360 224.997 C 892.523 234.575 879.035 250.891 874.068 261.177 C 859.874 290.972 848.873 323.960 848.518 356.950 C 847.453 409.802 861.296 460.529 887.552 505.929 C 895.004 519.408 903.521 532.532 913.102 544.238 C 916.651 549.203 927.653 560.554 928.718 565.520 C 930.135 570.486 925.523 575.098 922.330 578.645 C 915.231 586.448 906.005 593.187 899.974 601.701 C 894.296 611.278 899.618 630.788 899.974 642.138 C 899.263 649.232 897.845 654.908 897.489 661.293 C 892.870 731.530 871.219 795.024 818.709 844.324 C 793.514 867.738 762.640 886.182 731.413 898.950 C 703.378 910.301 673.570 918.814 644.117 922.715 C 629.568 924.489 610.760 924.490 597.275 928.035 C 587.340 930.519 563.917 953.574 554.692 961.024 C 549.724 964.927 542.272 972.021 535.529 970.601 C 522.756 968.118 493.300 933.356 480.171 928.391 C 472.718 925.907 441.137 924.134 431.200 922.715 C 401.036 918.459 371.584 910.301 343.904 898.950 C 308.066 884.407 272.222 862.063 245.962 833.683 C 199.838 784.382 181.735 727.272 177.473 661.293 C 177.119 652.779 175.344 644.975 174.990 635.753 C 175.699 625.112 180.665 611.633 174.990 601.701 C 168.956 593.187 159.730 586.448 152.633 578.645 C 149.440 575.098 144.826 570.841 146.246 565.520 C 147.310 560.554 158.310 548.849 161.859 544.238 C 171.440 532.532 179.957 519.408 187.409 505.929 C 213.665 460.529 227.508 409.449 226.444 356.950 C 226.090 323.960 215.087 290.972 200.893 261.177 C 196.991 253.373 192.023 245.571 187.409 237.766 C 185.636 234.929 180.313 227.834 179.602 224.997 C 177.120 216.482 192.379 196.973 201.249 196.265 C 207.281 195.556 216.153 199.457 222.541 200.877 C 235.672 203.714 251.285 205.842 265.124 205.842 C 285.707 206.198 310.546 204.069 331.129 200.166 C 349.226 196.265 365.551 190.236 382.229 182.076 M 424.812 155.472 C 420.198 152.635 412.746 146.606 407.779 146.606 C 402.456 146.606 395.004 153.344 390.745 155.828 C 382.938 160.793 373.356 165.760 365.196 169.306 C 340.353 180.660 309.127 186.333 282.158 186.688 C 262.640 187.043 243.477 186.688 224.670 181.722 C 218.283 180.303 196.635 172.854 192.732 173.563 C 186.701 174.627 183.507 180.303 180.313 184.559 C 174.635 192.364 155.472 213.999 155.827 222.868 C 156.180 229.963 174.635 253.019 179.248 261.177 C 193.796 288.135 206.928 324.316 207.281 354.821 C 208.346 409.449 194.149 457.337 166.118 503.800 C 156.892 519.055 146.955 533.597 134.889 546.366 C 131.342 550.267 118.920 561.972 118.567 566.584 C 118.211 570.842 123.890 575.806 126.728 578.290 C 133.116 585.383 148.729 599.927 153.698 606.666 C 159.728 614.825 156.180 631.852 156.536 642.138 C 156.537 654.199 157.600 655.972 158.310 665.549 C 163.284 738.270 188.129 805.665 242.059 856.385 C 272.578 885.120 309.130 906.045 348.162 920.586 C 369.099 928.391 398.198 936.549 420.554 939.741 C 425.877 940.452 469.525 945.417 469.525 945.417 C 476.621 947.901 509.270 976.277 518.496 983.371 C 523.110 986.919 531.272 994.723 537.658 994.723 C 543.336 994.723 552.207 987.274 556.821 983.726 C 566.402 976.277 597.276 948.254 605.792 945.417 C 610.051 943.997 615.729 944.708 620.696 944.353 C 632.407 942.933 644.826 941.516 656.892 939.388 C 686.345 934.421 716.508 925.554 744.188 913.848 C 810.184 885.829 862.355 837.950 892.522 771.963 C 911.327 730.463 918.778 681.512 918.781 635.753 C 918.426 625.821 914.879 615.179 921.265 606.666 C 928.361 597.088 937.943 589.287 946.104 580.418 C 950.009 576.871 956.041 571.550 954.977 565.520 C 954.268 559.134 942.557 549.558 937.943 544.238 C 926.233 531.469 916.651 516.926 907.426 501.672 C 880.104 456.626 866.616 407.674 867.680 354.821 C 868.036 324.316 881.166 288.135 895.715 261.177 C 900.327 253.019 918.781 229.963 919.136 222.868 C 919.489 213.999 900.327 192.364 894.651 184.559 C 891.457 180.303 888.262 174.627 882.229 173.563 C 878.326 172.854 856.679 180.303 850.647 181.722 C 831.129 186.688 812.677 187.043 793.159 186.688 C 765.836 186.333 734.608 180.660 710.121 169.306 C 701.249 165.405 692.379 161.149 684.571 155.828 C 679.958 153.344 672.505 146.606 667.538 146.606 C 660.796 146.606 638.438 163.277 631.342 167.178 C 606.500 180.304 578.467 190.945 550.434 190.944 C 516.367 191.299 492.238 189.882 461.008 175.691 C 448.234 170.017 436.167 163.277 424.812 155.472 Z"/>
</g>
</svg>
